<svg width="200" height="200" viewBox="0 0 200 200" xmlns="http://www.w3.org/2000/svg">
  <!-- Background circle -->
  <circle cx="100" cy="100" r="100" fill="white"/>

  <!-- "S" in green -->
  <path d="M100 160 C 80 140, 80 60, 100 40 C 120 20, 140 60, 120 80 C 100 100, 100 160, 100 160 Z" fill="#00BFA5"/>

  <!-- "L" in black -->
  <path d="M120 40 L140 40 L140 120 L180 120 L180 140 L120 140 Z" fill="black"/>

  <!-- Black decoration -->
  <path d="M120 100 C 115 95, 115 85, 120 80 C 125 75, 135 75, 140 80 C 145 85, 145 95, 140 100 C 135 105, 125 105, 120 100 Z" fill="black"/>
</svg>